<?xml version="1.0" encoding="UTF-8"?>
<svg id="Layer_1" data-name="Layer 1" xmlns="http://www.w3.org/2000/svg" viewBox="0 0 575.5 575.99">
  <defs>
    <style>
      .cls-1 {
        fill: #fff;
        stroke: #231f20;
        stroke-miterlimit: 10;
      }
    </style>
  </defs>
  <path class="cls-1" d="m.5,288.24C.5,175.27,65.71,77.54,160.55,30.62c-20.22,19.39-32.8,46.65-32.8,76.87v65c0,58.82,47.68,106.5,106.5,106.5h107c58.82,0,106.5-47.68,106.5-106.5v-65c0-30.21-12.58-57.48-32.78-76.86,94.83,46.92,160.03,144.65,160.03,257.61,0,158.64-128.61,287.25-287.25,287.25S.5,446.88.5,288.24Z"/>
  <path class="cls-1" d="m575,287.75c0,112.97-65.21,210.7-160.05,257.62,20.22-19.39,32.8-46.65,32.8-76.87v-65c0-58.82-47.68-106.5-106.5-106.5h-107c-58.82,0-106.5,47.68-106.5,106.5v65c0,30.21,12.58,57.48,32.78,76.86C65.7,498.44.5,400.71.5,287.75.5,129.11,129.11.5,287.75.5s287.25,128.61,287.25,287.25Z"/>
  <circle class="cls-1" cx="287.75" cy="181.69" r="89.56"/>
</svg>