<?xml version="1.0" encoding="utf-8"?>
<!-- Generator: Adobe Illustrator 27.3.1, SVG Export Plug-In . SVG Version: 6.00 Build 0)  -->
<svg version="1.1" xmlns="http://www.w3.org/2000/svg" xmlns:xlink="http://www.w3.org/1999/xlink" x="0px" y="0px"
	 viewBox="0 0 232.92 158.75" style="enable-background:new 0 0 232.92 158.75;" xml:space="preserve">
<style type="text/css">
	.st0{display:none;}
	.st1{display:inline;}
	.st2{fill:#FFFFFF;}
	.st3{fill:#ED1E2D;}
</style>
<g id="Layer_1" class="st0">
	<rect x="2.76" y="-9.23" class="st1" width="266.1" height="174.36"/>
</g>
<g id="Layer_2">
	<g>
		<g>
			<path class="st2" d="M35.32,71.31V27.63h8.12v43.68H35.32z M43.01,71.31v-7.78h3.41c4,0,7-1.14,9-3.43c2-2.29,3-5.62,3-10.01
				c0-4.84-1-8.5-3-10.98c-2-2.48-5-3.72-9-3.72h-3.29l-0.74-7.75h4.03c13.68,0,20.52,7.49,20.52,22.46
				c0,14.15-6.84,21.23-20.52,21.23H43.01z"/>
			<path class="st2" d="M72.85,71.31v-7.69h12.67v7.69H72.85z M74.69,46.39V38.7h18.52v7.69H74.69z M88.69,34.3
				c-1.58,0-2.86-0.49-3.85-1.48c-0.98-0.98-1.48-2.27-1.48-3.85c0-1.58,0.49-2.86,1.48-3.85s2.27-1.48,3.85-1.48
				c1.58,0,2.86,0.49,3.85,1.48s1.48,2.27,1.48,3.85c0,1.58-0.49,2.86-1.48,3.85C91.55,33.81,90.27,34.3,88.69,34.3z M84.91,71.31
				V40.55h8.31v30.76H84.91z M92.6,71.31v-7.69h10.27v7.69H92.6z"/>
			<path class="st2" d="M120.59,71.92c-4.04,0-7.18-1.46-9.43-4.37c-2.25-2.91-3.37-7.09-3.37-12.52c0-5.39,1.12-9.57,3.37-12.52
				c2.25-2.95,5.41-4.43,9.49-4.43c2.48,0,4.36,0.54,5.65,1.62c1.28,1.08,2.12,2.71,2.51,4.91h2.4l-1.91,10.43
				c0-3.16-0.53-5.46-1.58-6.92c-1.06-1.46-2.65-2.18-4.78-2.18c-2.03,0-3.6,0.79-4.71,2.38s-1.66,3.83-1.66,6.72
				c0,2.99,0.54,5.25,1.62,6.77c1.08,1.52,2.66,2.28,4.75,2.28c2.38,0,4.04-0.72,4.97-2.15c0.93-1.44,1.4-3.73,1.4-6.89l2.21,10.37
				h-2.89c-0.33,2.17-1.18,3.8-2.55,4.89S122.87,71.92,120.59,71.92z M110.96,86.01l-0.31-7.26l10.46-0.31
				c2.87-0.08,4.95-0.88,6.24-2.38c1.29-1.51,1.94-3.73,1.94-6.66V45.59l0.62-6.89h7.72v29.72c0,5.8-1.36,10.08-4.09,12.84
				c-2.73,2.76-7.08,4.24-13.04,4.45L110.96,86.01z"/>
			<path class="st2" d="M146.68,71.31v-7.69h12.67v7.69H146.68z M148.52,46.39V38.7h18.52v7.69H148.52z M162.52,34.3
				c-1.58,0-2.86-0.49-3.84-1.48c-0.98-0.98-1.48-2.27-1.48-3.85c0-1.58,0.49-2.86,1.48-3.85s2.27-1.48,3.84-1.48
				s2.86,0.49,3.84,1.48s1.48,2.27,1.48,3.85c0,1.58-0.49,2.86-1.48,3.85C165.38,33.81,164.1,34.3,162.52,34.3z M158.73,71.31V40.55
				h8.31v30.76H158.73z M166.43,71.31v-7.69h10.27v7.69H166.43z"/>
			<path class="st3" d="M182.27,78.72v-7.41h30.76v7.41H182.27z"/>
			<path class="st2" d="M48.49,126.92c-2.48,0-4.89-0.21-7.23-0.63c-2.34-0.42-4.43-1.01-6.28-1.77l1.11-8.31
				c2.26,0.94,4.5,1.67,6.72,2.18c2.22,0.51,4.28,0.77,6.17,0.77c2.19,0,3.88-0.39,5.04-1.17c1.17-0.78,1.75-1.9,1.75-3.35
				c0-1.91-1.2-3.42-3.6-4.55l-6.28-3.05c-3.1-1.52-5.5-3.39-7.2-5.63c-1.7-2.23-2.55-4.71-2.55-7.41c0-3.81,1.26-6.77,3.78-8.86
				s6.09-3.14,10.71-3.14c2.69,0,5.23,0.47,7.64,1.42c2.41,0.94,4.55,2.31,6.41,4.09l-5.6,6.43c-1.42-1.35-2.84-2.39-4.28-3.12
				c-1.44-0.73-2.82-1.09-4.15-1.09c-1.8,0-3.21,0.38-4.21,1.15c-1,0.77-1.51,1.88-1.51,3.34c0,0.96,0.35,1.88,1.06,2.74
				c0.71,0.86,1.72,1.64,3.03,2.34l5.91,3.05c3.08,1.6,5.45,3.47,7.12,5.6c1.67,2.13,2.51,4.42,2.51,6.86c0,3.88-1.4,6.87-4.18,8.97
				C57.6,125.87,53.63,126.92,48.49,126.92z"/>
			<path class="st2" d="M70.08,101.36V93.7h30.58v7.66H70.08z M77.89,110.4V83.86h8.31v26.55H77.89z M93.83,126.92
				c-5.62,0-9.68-1.13-12.18-3.38c-2.5-2.26-3.75-5.86-3.75-10.83v-4.25h8.31v3.45c0,2.48,0.64,4.29,1.92,5.41
				c1.28,1.13,3.39,1.69,6.32,1.69c0.94,0,1.95-0.06,3.03-0.17c1.08-0.11,2.3-0.26,3.68-0.45l0.74,7.78
				c-1.35,0.25-2.67,0.43-3.95,0.55C96.65,126.86,95.28,126.92,93.83,126.92z"/>
			<path class="st2" d="M123.82,126.92c-4.7,0-8.34-1.48-10.92-4.43s-3.88-7.12-3.88-12.49c0-5.39,1.29-9.56,3.88-12.5
				c2.58-2.94,6.22-4.41,10.92-4.41c4.7,0,8.34,1.47,10.92,4.41c2.58,2.94,3.88,7.11,3.88,12.5c0,5.37-1.29,9.54-3.88,12.49
				S128.52,126.92,123.82,126.92z M123.85,119.02c1.89,0,3.35-0.78,4.38-2.35c1.04-1.57,1.55-3.79,1.55-6.66
				c0-2.89-0.52-5.12-1.55-6.68c-1.04-1.56-2.51-2.34-4.41-2.34c-1.89,0-3.35,0.78-4.4,2.34c-1.05,1.56-1.57,3.78-1.57,6.68
				c0,2.87,0.52,5.09,1.57,6.66C120.47,118.23,121.94,119.02,123.85,119.02z"/>
			<path class="st2" d="M144.22,126.31v-7.14h22.83v7.14H144.22z M145.45,100.84V93.7h12.3l0.62,7.14H145.45z M151.11,126.31V93.7
				h7.08l1.23,9.35v23.26H151.11z M159.41,112.28l-1.91-11.23h2.8c0.33-5.31,3.11-7.97,8.34-7.97c3.1,0,5.47,1.14,7.12,3.41
				c1.65,2.28,2.48,5.56,2.48,9.84h-8.28c0-1.93-0.35-3.31-1.06-4.15c-0.71-0.84-1.85-1.26-3.43-1.26c-2.03,0-3.55,0.98-4.55,2.95
				S159.41,108.65,159.41,112.28z"/>
			<path class="st2" d="M200.54,126.92c-5.64,0-10-1.46-13.07-4.38c-3.08-2.92-4.62-7.12-4.62-12.6c0-5.33,1.31-9.47,3.92-12.43
				c2.61-2.95,6.3-4.43,11.06-4.43c4.66,0,8.25,1.36,10.8,4.09c2.54,2.73,3.81,6.7,3.81,11.9c0,1.48-0.06,2.88-0.19,4.21h-23.93
				v-5.78h15.93c0-2.19-0.56-3.88-1.68-5.04c-1.12-1.17-2.68-1.75-4.69-1.75c-2.17,0-3.86,0.77-5.06,2.32
				c-1.2,1.55-1.8,3.75-1.8,6.6c0,3.08,0.89,5.41,2.66,7.01s4.3,2.4,7.58,2.4c1.48,0,2.93-0.08,4.37-0.23
				c1.44-0.15,2.9-0.36,4.4-0.63l0.8,7.88c-2.09,0.37-4,0.6-5.72,0.71C203.4,126.87,201.87,126.92,200.54,126.92z"/>
		</g>
	</g>
</g>
</svg>
