<?xml version="1.0" encoding="utf-8"?>
<!-- Generator: Adobe Illustrator 27.4.0, SVG Export Plug-In . SVG Version: 6.00 Build 0)  -->
<svg version="1.1" id="Layer_1" xmlns="http://www.w3.org/2000/svg" xmlns:xlink="http://www.w3.org/1999/xlink" x="0px" y="0px"
	 viewBox="0 0 206.89 84.14" style="enable-background:new 0 0 206.89 84.14;" xml:space="preserve">
<style type="text/css">
	.st0{fill:#FF0000;}
</style>
<g>
	<g>
		<path d="M8.8,62.9V16.45h8.64V62.9H8.8z M16.97,62.9v-8.28h3.63c4.25,0,7.44-1.21,9.57-3.65c2.13-2.43,3.19-5.98,3.19-10.65
			c0-5.15-1.06-9.04-3.19-11.68c-2.13-2.64-5.32-3.96-9.57-3.96h-3.5l-0.79-8.24h4.29c14.55,0,21.82,7.96,21.82,23.88
			c0,15.05-7.27,22.57-21.82,22.57H16.97z"/>
		<path d="M48.71,62.9v-8.18h13.48v8.18H48.71z M50.67,36.4v-8.18h19.69v8.18H50.67z M65.56,23.54c-1.68,0-3.04-0.52-4.09-1.57
			s-1.57-2.41-1.57-4.09c0-1.68,0.52-3.04,1.57-4.09s2.41-1.57,4.09-1.57c1.68,0,3.04,0.52,4.09,1.57s1.57,2.41,1.57,4.09
			c0,1.68-0.52,3.04-1.57,4.09S67.23,23.54,65.56,23.54z M61.53,62.9V30.19h8.83V62.9H61.53z M69.71,62.9v-8.18h10.93v8.18H69.71z"
			/>
		<path d="M99.48,63.55c-4.3,0-7.64-1.55-10.03-4.65c-2.39-3.1-3.58-7.54-3.58-13.32c0-5.74,1.19-10.17,3.58-13.31
			c2.39-3.14,5.75-4.71,10.09-4.71c2.64,0,4.64,0.57,6,1.72c1.36,1.14,2.25,2.88,2.67,5.22h2.55l-2.03,11.09
			c0-3.36-0.56-5.81-1.68-7.36c-1.12-1.55-2.82-2.32-5.09-2.32c-2.16,0-3.83,0.85-5,2.54s-1.77,4.07-1.77,7.15
			c0,3.19,0.57,5.58,1.72,7.2c1.14,1.62,2.83,2.42,5.05,2.42c2.53,0,4.29-0.76,5.28-2.29c0.99-1.53,1.49-3.97,1.49-7.33l2.36,11.03
			h-3.08c-0.35,2.31-1.25,4.05-2.71,5.2C103.84,62.98,101.9,63.55,99.48,63.55z M89.24,78.54l-0.33-7.72l11.12-0.33
			c3.05-0.09,5.27-0.93,6.64-2.54c1.38-1.6,2.06-3.96,2.06-7.08V35.55l0.65-7.33h8.21v31.6c0,6.17-1.45,10.72-4.35,13.66
			c-2.9,2.93-7.52,4.51-13.87,4.73L89.24,78.54z"/>
		<path d="M127.22,62.9v-8.18h13.48v8.18H127.22z M129.19,36.4v-8.18h19.7v8.18H129.19z M144.07,23.54c-1.68,0-3.04-0.52-4.09-1.57
			s-1.57-2.41-1.57-4.09c0-1.68,0.52-3.04,1.57-4.09s2.41-1.57,4.09-1.57c1.68,0,3.04,0.52,4.09,1.57s1.57,2.41,1.57,4.09
			c0,1.68-0.52,3.04-1.57,4.09S145.75,23.54,144.07,23.54z M140.05,62.9V30.19h8.83V62.9H140.05z M148.23,62.9v-8.18h10.93v8.18
			H148.23z"/>
		<path class="st0" d="M165.07,70.79V62.9h32.71v7.88H165.07z"/>
	</g>
</g>
</svg>
