<?xml version="1.0" encoding="UTF-8"?>
<svg id="Layer_1" data-name="Layer 1" xmlns="http://www.w3.org/2000/svg" viewBox="0 0 560.97 81.55">
  <defs>
    <style>
      .cls-1 {
        fill: #fff;
      }

      .cls-1, .cls-2 {
        stroke: #231f20;
        stroke-miterlimit: 10;
      }

      .cls-2 {
        fill: #fff200;
      }
    </style>
  </defs>
  <polygon class="cls-2" points="45.82 1.07 59.72 27.22 90.66 31.35 68.32 51.77 73.67 80.54 45.98 67.01 18.34 80.66 23.56 51.88 1.13 31.55 32.05 27.28 45.82 1.07"/>
  <polygon class="cls-2" points="163.12 1.07 177.01 27.22 207.95 31.35 185.62 51.77 190.97 80.54 163.27 67.01 135.64 80.66 140.85 51.88 118.42 31.55 149.35 27.28 163.12 1.07"/>
  <polygon class="cls-1" points="280.41 1.07 294.31 27.22 325.25 31.35 302.91 51.77 308.26 80.54 280.57 67.01 252.93 80.66 258.15 51.88 235.72 31.55 266.64 27.28 280.41 1.07"/>
  <polygon class="cls-1" points="397.71 1.07 411.6 27.22 442.54 31.35 420.21 51.77 425.56 80.54 397.86 67.01 370.23 80.66 375.44 51.88 353.02 31.55 383.94 27.28 397.71 1.07"/>
  <polygon class="cls-1" points="515.01 1.07 528.9 27.22 559.84 31.35 537.5 51.77 542.85 80.54 515.16 67.01 487.52 80.66 492.74 51.88 470.31 31.55 501.23 27.28 515.01 1.07"/>
</svg>