<?xml version="1.0" encoding="utf-8"?>
<!-- Generator: Adobe Illustrator 27.0.0, SVG Export Plug-In . SVG Version: 6.00 Build 0)  -->
<svg version="1.1" id="basilisk" xmlns="http://www.w3.org/2000/svg" xmlns:xlink="http://www.w3.org/1999/xlink" x="0px" y="0px"
	 viewBox="0 0 504 360" style="enable-background:new 0 0 504 360;" xml:space="preserve">
<style type="text/css">
	.st0{fill:#84E490;}
	.st1{fill:#FFFFFF;stroke:#FFFFFF;stroke-miterlimit:10;}
	.st2{fill:none;stroke:#84E490;stroke-width:5;stroke-miterlimit:10;}
</style>
<path class="st0" d="M235.47,344.64c4.85,0.42,28.05,2.2,57.25-5.07c9.15-2.28,38.22-9.8,65.06-30.36
	c33.52-25.67,61.47-70.06,63.66-121.88c2.77-65.47-36.31-125.78-92.28-154.41C261.24-1.83,178.9,15.43,129.64,65.45
	c-50.86,51.64-47.5,118.94-47.08,125.35c4.81,72.57,57.27,113.55,67.9,121.45C160.84,319.95,191.55,340.84,235.47,344.64z"/>
<path class="st1" d="M235.47,344.64c-2.52-19.26-6.39-59.73,2.17-96.16c2.61-11.1,5.84-19.57,10.84-27.76
	c10.03-16.43,23.56-25.87,32.1-30.8l31.66-13.01c5.67-1.85,13.82-4.77,23.42-9.11c9.11-4.12,10.98-5.66,12.23-6.89
	c9.7-9.55,7.82-25.53,7.44-28.76c-2.01-17.08-13.59-28.12-17.46-31.71c-25.01-23.17-62.29-18.57-76.8-16.78
	c-21.66,2.67-37.86,10.38-46.84,14.75c-10.78,5.24-21.01,10.21-31.23,19.95c-19.23,18.33-24.72,40.9-29.49,58.12
	c-3.65,13.16-4.35,27.6-6.07,56.39c0,0-1.6,26.74,0,52.48c0.39,6.22,1.2,13.41,1.3,14.31c0.75,6.61,1.13,9.91,1.73,11.71
	c1.93,5.73,7.91,7.16,23.52,15.42c5.79,3.06,22.13,11.22,45.14,15.58C225.86,343.65,231.53,344.29,235.47,344.64z"/>
<path class="st0" d="M314.08,151.22c-5.9,1.65-10.5,2.94-14.86,0.76c-3.09-1.54-4.62-4.12-5.53-5.64c-0.73-1.22-1.02-2.1-0.76-2.93
	c0.39-1.27,1.92-1.96,2.93-2.17c3.4-0.69,4.96,3.31,9.22,4.77c3.6,1.24,6.92-0.12,13.55-2.82c5.82-2.37,6.87-4.05,13.12-5.96
	c3.54-1.08,5.59-1.27,7.59-1.04c1.17,0.14,3.09,0.83,6.94,2.23c0.94,0.34,3.57,1.31,6.83,2.93c2.97,1.47,3.31,2.01,3.47,2.28
	c1.9,3.16-1.77,8.65-2.39,8.46c-0.43-0.13,0.62-2.05-0.43-3.96c-0.71-1.29-1.8-1.51-5.82-3.16c-4.94-2.02-4.94-2.36-6.65-2.6
	c-2.2-0.31-3.97,0-5.92,0.33c-0.82,0.14-2.8,0.52-5.57,1.58c-3.72,1.42-4.69,2.55-8.13,4.12
	C320.47,148.94,317.63,150.23,314.08,151.22z"/>
<path class="st2" d="M279.85,106.59c3.68,1.21,13.84,4.57,13.74,8.73c-0.13,5.53-18.23,9.63-20.39,9.98
	c-1.77,0.28-1.92,0.21-6.04,0.26c-2.84,0.03-5.39,0.13-8.71,0.18c-5.1,0.07-11.11,0.15-17.35-2.17c-3.36-1.25-9.29-3.45-9.54-6.94
	c-0.31-4.33,8.34-8.04,10.84-9.11c1.15-0.49,5.76-2.4,15.14-2.97C263.81,104.17,271.15,103.72,279.85,106.59z"/>
</svg>
