<?xml version="1.0" encoding="UTF-8"?>
<svg id="basilisk" xmlns="http://www.w3.org/2000/svg" viewBox="0 0 339.21 330.48">
  <defs>
    <style>
      .cls-1 {
        fill: #84e490;
      }

      .cls-2 {
        stroke: #000;
      }

      .cls-2, .cls-3 {
        stroke-miterlimit: 10;
      }

      .cls-3 {
        fill: none;
        stroke: #84e490;
        stroke-width: 5px;
      }
    </style>
  </defs>
  <path class="cls-1" d="m153.11,329.93c4.85.42,28.05,2.2,57.25-5.07,9.15-2.28,38.22-9.8,65.06-30.36,33.52-25.67,61.47-70.06,63.66-121.88,2.77-65.47-36.31-125.78-92.28-154.41C178.88-16.54,96.54.71,47.28,50.73-3.59,102.37-.23,169.67.2,176.08c4.81,72.57,57.27,113.55,67.9,121.45,10.38,7.71,41.09,28.6,85.01,32.4Z"/>
  <path class="cls-2" d="m153.11,329.93c-2.52-19.26-6.39-59.73,2.17-96.16,2.61-11.1,5.84-19.57,10.84-27.76,10.03-16.43,23.56-25.87,32.1-30.8l31.66-13.01c5.67-1.85,13.82-4.77,23.42-9.11,9.11-4.12,10.98-5.66,12.23-6.89,9.7-9.55,7.82-25.53,7.44-28.76-2.01-17.08-13.59-28.12-17.46-31.71-25.01-23.17-62.29-18.57-76.8-16.78-21.66,2.67-37.86,10.38-46.84,14.75-10.78,5.24-21.01,10.21-31.23,19.95-19.23,18.33-24.72,40.9-29.49,58.12-3.65,13.16-4.35,27.6-6.07,56.39,0,0-1.6,26.74,0,52.48.39,6.22,1.2,13.41,1.3,14.31.75,6.61,1.13,9.91,1.73,11.71,1.93,5.73,7.91,7.16,23.52,15.42,5.79,3.06,22.13,11.22,45.14,15.58,6.74,1.28,12.41,1.92,16.35,2.27Z"/>
  <path class="cls-1" d="m231.72,136.5c-5.9,1.65-10.5,2.94-14.86.76-3.09-1.54-4.62-4.12-5.53-5.64-.73-1.22-1.02-2.1-.76-2.93.39-1.27,1.92-1.96,2.93-2.17,3.4-.69,4.96,3.31,9.22,4.77,3.6,1.24,6.92-.12,13.55-2.82,5.82-2.37,6.87-4.05,13.12-5.96,3.54-1.08,5.59-1.27,7.59-1.04,1.17.14,3.09.83,6.94,2.23.94.34,3.57,1.31,6.83,2.93,2.97,1.47,3.31,2.01,3.47,2.28,1.9,3.16-1.77,8.65-2.39,8.46-.43-.13.62-2.05-.43-3.96-.71-1.29-1.8-1.51-5.82-3.16-4.94-2.02-4.94-2.36-6.65-2.6-2.2-.31-3.97,0-5.92.33-.82.14-2.8.52-5.57,1.58-3.72,1.42-4.69,2.55-8.13,4.12-1.2.55-4.05,1.83-7.59,2.82Z"/>
  <path class="cls-3" d="m197.49,91.88c3.68,1.21,13.84,4.57,13.74,8.73-.13,5.53-18.23,9.63-20.39,9.98-1.77.28-1.92.21-6.04.26-2.84.03-5.39.13-8.71.18-5.1.07-11.11.15-17.35-2.17-3.36-1.25-9.29-3.45-9.54-6.94-.31-4.33,8.34-8.04,10.84-9.11,1.15-.49,5.76-2.4,15.14-2.97,6.26-.38,13.6-.83,22.3,2.04Z"/>
</svg>