<?xml version="1.0" encoding="utf-8"?>
<!-- Generator: Adobe Illustrator 27.0.1, SVG Export Plug-In . SVG Version: 6.00 Build 0)  -->
<svg version="1.1" id="Layer_1" xmlns="http://www.w3.org/2000/svg" xmlns:xlink="http://www.w3.org/1999/xlink" x="0px" y="0px"
	 viewBox="0 0 186.07 175.66" style="enable-background:new 0 0 186.07 175.66;" xml:space="preserve">
<style type="text/css">
	.st0{fill:none;stroke:#000000;stroke-width:9;stroke-miterlimit:10;}
	.st1{stroke:#000000;stroke-miterlimit:10;}
</style>
<path class="st0" d="M54.22,76.63c0.42-3.45,1.61-12.28,8.39-20.53c5.14-6.26,10.98-9.11,13.63-10.38
	c10.81-5.14,21.01-4.3,26.12-3.41c3.15,0.55,9.82,1.78,16.64,6.56c15.54,10.87,16.93,29.64,17.06,31.81
	c0.62,10.65-2.97,18.94-5.2,23.13l-15.33,21.69l-37.88,4.92c-1.36-2.79-3.52-6.9-6.65-11.57c-4.65-6.95-6.91-8.39-9.73-12.38
	C52.34,93.83,53.99,78.51,54.22,76.63z"/>
<polygon class="st1" points="74.75,141.98 116.1,137.06 116.1,146.02 77.35,152.1 "/>
<path class="st1" d="M81.98,158.46c10.51-1.35,21.01-2.7,31.52-4.05c-0.56,1.03-1.48,2.51-2.89,4.05
	c-0.94,1.02-6.06,6.58-14.17,6.64c-5.65,0.04-9.72-2.61-11.28-3.75L81.98,158.46z"/>
<path class="st1" d="M40.3,85.59c-2.35,0-4.7,0-7.05,0H26.6c-0.29-0.1-0.72-0.27-1.16-0.58c-1.1-0.77-2.16-2.3-1.99-4.08
	c0.18-1.85,1.63-3.46,3.61-3.9h12.9c0.19,0.08,0.46,0.21,0.76,0.4c0.13,0.08,1.89,1.19,2.39,2.67c0.52,1.57-0.34,3.64-2.13,5.06
	C40.76,85.3,40.53,85.45,40.3,85.59z"/>
<path class="st1" d="M49.64,40.86c-1.65-1.67-3.3-3.35-4.94-5.02l-4.66-4.74c-0.14-0.28-0.31-0.7-0.4-1.23
	c-0.22-1.32,0.13-3.15,1.52-4.28c1.45-1.17,3.61-1.26,5.32-0.16l9.05,9.2c0.07,0.2,0.17,0.48,0.25,0.82
	c0.03,0.15,0.48,2.18-0.23,3.58c-0.75,1.47-2.83,2.31-5.1,2.03C50.17,40.99,49.9,40.93,49.64,40.86z"/>
<path class="st1" d="M94.5,27.39c0-2.35,0-4.7,0-7.05v-6.65c0.1-0.29,0.27-0.72,0.58-1.16c0.77-1.1,2.3-2.16,4.08-1.99
	c1.85,0.18,3.46,1.63,3.9,3.61v12.9c-0.08,0.19-0.21,0.46-0.4,0.76c-0.08,0.13-1.19,1.89-2.67,2.39c-1.57,0.52-3.64-0.34-5.06-2.13
	C94.79,27.84,94.64,27.61,94.5,27.39z"/>
<path class="st1" d="M149.77,33.07c-1.36,1.92-2.71,3.84-4.07,5.76l-3.84,5.43c-0.25,0.18-0.63,0.43-1.14,0.61
	c-1.27,0.45-3.12,0.43-4.48-0.73c-1.41-1.21-1.88-3.33-1.1-5.2l7.45-10.54c0.18-0.11,0.44-0.25,0.76-0.39
	c0.14-0.06,2.06-0.86,3.56-0.4c1.58,0.48,2.78,2.37,2.9,4.66C149.8,32.53,149.79,32.8,149.77,33.07z"/>
<path class="st1" d="M164.04,80.69c-2.35,0.11-4.69,0.21-7.04,0.32l-6.64,0.3c-0.3-0.08-0.73-0.23-1.18-0.53
	c-1.13-0.72-2.26-2.2-2.17-3.99c0.09-1.86,1.48-3.53,3.43-4.06l12.89-0.59c0.2,0.08,0.47,0.19,0.78,0.36
	c0.14,0.08,1.94,1.1,2.5,2.56c0.59,1.54-0.17,3.65-1.9,5.15C164.48,80.38,164.26,80.53,164.04,80.69z"/>
</svg>
