<?xml version="1.0" encoding="utf-8"?>
<!-- Generator: Adobe Illustrator 27.4.1, SVG Export Plug-In . SVG Version: 6.00 Build 0)  -->
<svg version="1.1" id="Layer_1" xmlns="http://www.w3.org/2000/svg" xmlns:xlink="http://www.w3.org/1999/xlink" x="0px" y="0px"
	 viewBox="0 0 63.9 61.3" style="enable-background:new 0 0 63.9 61.3;" xml:space="preserve">
<g transform="translate(0.000000,512.000000) scale(0.100000,-0.100000)">
	<path d="M9.9,5118.1c-11.1-5.5-13.4-20.9-4.3-29.4c1.9-1.8,14.6-9,28.4-16c13.8-7.1,25.1-13,25.2-13c0.1-0.1,12.9-77.9,28.2-172.8
		l28-172.5l-4.1-26.9c-2.4-14.8-4.5-28-4.9-29.6c-0.6-2.5-1.4-2.8-9.1-2.8c-18.9,0-34.8-7-49.6-21.9c-15.4-15.4-21.9-30.8-21.9-52.2
		c0-20.6,7-37.9,21.2-52.2c26.5-26.8,68-29.8,98-7c12.6,9.5,25.6,30,27.9,44l1,6.2l137.2,0.4c109.1,0.2,137.2,0,137.6-1.2
		c8-28.5,18.6-44,37.5-54.9c12.6-7.1,21.1-9.2,37.6-9.1c12.9,0,16.1,0.5,23.4,3.2c12.9,4.9,21.8,10.8,30.6,20.2
		c13.4,14.5,19.8,31,19.6,51.4c-0.1,30.9-20,58.8-50,69.6c-9.2,3.4-30.1,4.5-40.4,2.2c-20.5-4.5-40-19.5-49.8-38.2l-3.5-6.8H312H170
		l-4.9,8.5c-2.8,4.8-8.9,12.2-14,17.4l-9.1,9l4,25.6l4.1,25.8l208.1,0.2c199.9,0.4,208.4,0.5,212,2.6c2.1,1.4,5,4.1,6.5,6.2
		c4,6.1,63.4,231.4,62.4,237.1c-0.8,4.8-3.8,9.2-8.4,12.8c-2.4,1.8-55.2,9.8-263.6,39.8c-143.4,20.6-261.8,37.8-263.1,38.1
		c-2.2,0.5-3,3-6.1,22.9c-3.8,24.2-5.4,28.5-12.2,32.8c-2.2,1.4-17.4,9.2-33.8,17.5C20.8,5121.1,17.8,5121.9,9.9,5118.1z
		 M154.7,4987.1c22.4-3.1,42.1-6,43.9-6.4l3.2-0.6l2.1-27.5c1.2-15.2,1.9-28,1.5-28.4c-0.8-0.6-77.1,6.5-84.5,8
		c-3.1,0.6-3.2,1-7.9,30.2c-2.6,16.2-4.8,30-4.6,30.6c0,0.5,1.2,0.6,2.9,0.2C112.8,4993.1,132.3,4990.2,154.7,4987.1z M326.8,4962.1
		l4.1-0.8v-25.6v-25.6l-4,0.6c-2.2,0.4-21.5,2.5-42.9,4.6c-21.2,2.1-39.1,4.2-39.5,4.8c-0.6,0.6-5,47.8-4.9,53.4
		C239.7,4974.6,307.7,4965.7,326.8,4962.1z M419.7,4948.8c25.1-3.5,45.9-6.6,46.1-6.9s-0.9-10.2-2.5-22.4l-2.9-21.9h-3.1
		c-1.8,0-22.4,2-45.6,4.4c-23.4,2.4-42.6,4.4-42.9,4.4s-0.4,11.2-0.4,25v25l2.9-0.6C372.8,4955.6,394.5,4952.3,419.7,4948.8z
		 M554,4929.6c23.4-3.4,42.8-6.2,43-6.4c0.6-0.5-8.8-37-9.8-38.2c-0.6-0.6-88.4,7.5-89.8,8.2c-0.2,0.2,4.5,36.9,5.4,40.6
		c0.5,2.5,1.2,2.9,4.6,2.2C509.8,4935.8,530.7,4932.8,554,4929.6z M165.9,4890.1c21-2,39.2-4,40.8-4.2c2.4-0.5,2.6-2.1,4.6-27.8
		c1.2-15,2.1-27.9,2.1-28.5c0-1.2-39.2,0.2-69.4,2.5l-10.1,0.8l-4.6,29.6c-2.6,16.2-4.8,30-4.6,30.6
		C124.7,4894.3,123.3,4894.4,165.9,4890.1z M292.2,4877.1c18.2-1.8,34.4-3.5,36-3.9c2.8-0.5,2.8-0.6,2.8-26.1v-25.6l-9,0.8
		c-5,0.4-22.8,1.4-39.5,2.2c-16.8,1-30.6,1.9-30.8,2.1c-0.5,0.5-4.5,47.5-4.5,52.4c0,2.6,0.4,2.8,6,2.1
		C256.4,4880.7,273.9,4878.8,292.2,4877.1z M412.2,4864.6c22.9-2.4,41.9-4.6,42.2-5c0.6-0.6-4.5-43.2-5.2-44.1
		c-0.2-0.1-18.2,0.8-40.2,1.9l-39.9,2.2l-0.4,24.8c-0.1,13.6,0.2,24.6,0.8,24.6C370,4868.9,389.3,4866.9,412.2,4864.6z
		 M539.7,4851.4c20.2-2.1,37-4.1,37.2-4.4c0.8-0.6-8.6-36-9.9-37.4c-0.9-1-78.6,2.6-79.8,3.8c-0.4,0.4,2.2,23.8,4.5,38.4l0.8,4.8
		l5.1-0.8C500.4,4855.4,519.4,4853.4,539.7,4851.4z M189.7,4792.3l26.9-1.5l1.4-16.9c0.8-9.2,1.9-22.4,2.4-29.1l0.9-12.1l-35.5,0.2
		l-35.4,0.4l-4.6,27.5c-2.5,15.1-4.6,29-4.6,30.9l-0.1,3.5l11-0.8C157.9,4794.1,174.9,4793.1,189.7,4792.3z M295.3,4786.4
		c15.1-0.8,29.4-1.6,31.6-2l4-0.6v-25.5v-25.6h-36.2c-33.6,0-36.2,0.1-36.2,2.2c0,1.1-0.9,11.8-1.9,23.4c-1,11.8-1.9,23.4-1.9,26
		v4.8l6.6-0.6C264.8,4788.1,280.2,4787.2,295.3,4786.4z M415,4779.7c15.6-0.9,28.6-1.9,28.9-2.1c0.4-0.4-1.4-14.8-4.9-39.5l-0.8-5.4
		h-35h-34.9v24.9v24.9l9.1-0.5C382.4,4781.6,399.3,4780.6,415,4779.7z M526.3,4773.4c16.2-0.9,30-1.9,30.4-2.4
		c0.6-0.5-5-23.2-8.4-34.2l-1.4-4.1h-35.6h-35.6l0.8,4.1c0.4,2.1,1.6,11.4,2.6,20.2c1.1,9,2.2,16.9,2.5,17.6s3.2,1.1,7.6,0.9
		C493.3,4775.3,509.9,4774.3,526.3,4773.4z M108.5,4617.3c28.3-6.8,38.3-42,17.8-62.5c-7.2-7.2-16.2-10.9-27.2-10.9
		c-6.5,0-9.2,0.8-15.8,4.1c-31.1,16.1-24.9,62.8,9.2,69.6C100,4619.1,100.8,4619.1,108.5,4617.3z M539,4614.6
		c7.6-3.4,14.1-9.9,18.1-17.8c2.4-4.8,3-8,3-15.4c0.1-15.5-6.8-26.9-20.5-34c-8.1-4.1-24.4-4.1-32.5,0c-13.6,7.1-20.5,18.5-20.6,34
		c0,7.5,0.6,10.5,3.1,15.4C499.3,4615.9,519.9,4623.3,539,4614.6z"/>
</g>
</svg>
